<svg id="Capa_1" data-name="Capa 1" xmlns="http://www.w3.org/2000/svg" viewBox="0 0 80 15.1993"><rect x="35.1903" y="0.6187" width="0.2799" height="13.9617" style="fill:#75787b"/><path d="M1.59828,5.8143A1.107,1.107,0,1,0,.5,4.7079,1.103,1.103,0,0,0,1.59828,5.8143" style="fill:#009cdd"/><path d="M30.6733,14.4879a1.107,1.107,0,1,0-1.0979-1.1061,1.10293,1.10293,0,0,0,1.0979,1.1061" style="fill:#6d2077"/><path d="M16.2781,9.1368v.0483a5.92959,5.92959,0,0,1-.4948,2.708,2.24414,2.24414,0,0,1-2.1676,1.1532.26933.26933,0,0,0-.0438,0h-.02a2.24664,2.24664,0,0,1-2.1851-1.1547,5.90961,5.90961,0,0,1-.4966-2.7251V9.1057a5.11425,5.11425,0,0,1,.4966-2.5303,2.244,2.244,0,0,1,2.1851-1.1543h.0456a2.24564,2.24564,0,0,1,2.1869,1.1554,5.12547,5.12547,0,0,1,.4937,2.5292Zm.3348-4.2828a.17454.17454,0,0,0-.0201-.0219,4.251,4.251,0,0,0-2.8673-.9628.47053.47053,0,0,0-.0641-.0026,4.09087,4.09087,0,0,0-2.7901.9249l-.0011.0004V4.1599h.0019V.959a.312.312,0,0,0-.0995-.2265.35367.35367,0,0,0-.2413-.0946H9.4171a.357.357,0,0,0-.2409.0946A.30894.30894,0,0,0,9.0767.959V4.1599h.0008v6.7964H9.0767v3.1842a.31157.31157,0,0,0,.0995.2257.35439.35439,0,0,0,.2416.095h1.1139a.3534.3534,0,0,0,.2409-.095.30512.30512,0,0,0,.1002-.2257v-.6584a3.66063,3.66063,0,0,0,2.7886,1.1172h.069a4.257,4.257,0,0,0,2.8624-.9647,6.04271,6.04271,0,0,0,1.4784-4.4974A5.617,5.617,0,0,0,16.6129,4.854" style="fill:#d00070"/><path d="M7.3086,3.8093H5.3978L5.3971,1.873H5.3963L5.3956.9354A.31831.31831,0,0,0,5.06637.6303H3.918A.343.343,0,0,0,3.68563.719.29973.29973,0,0,0,3.588.9354v1.727h.00074v9.0783a2.72786,2.72786,0,0,0,.68,1.9041,2.69013,2.69013,0,0,0,1.99906.7902h.5564v-.0067h.4844a.30645.30645,0,0,0,.2245-.1005.35573.35573,0,0,0,.0939-.2428V12.963a.35794.35794,0,0,0-.0939-.2428.30386.30386,0,0,0-.2245-.1005H6.42a1.51122,1.51122,0,0,1-.4491-.0728.75358.75358,0,0,1-.1759-.088.68831.68831,0,0,1-.1289-.105,1.244,1.244,0,0,1-.2683-.8834V5.618H7.3086a.30727.30727,0,0,0,.2245-.1002.3585.3585,0,0,0,.0939-.2431V4.1519a.35706.35706,0,0,0-.0939-.242.30359.30359,0,0,0-.2245-.1006" style="fill:#d00070"/><path d="M28.6223,14.0017l-1.3938-1.9672-2.793-4.0783,2.1706-2.3053,1.2638-1.3355.0768-.0854a.24079.24079,0,0,0,.0108-.3585.353.353,0,0,0-.2409-.095H26.265a.46886.46886,0,0,0-.2609.1232L21.131,9.0967V.9211a.31579.31579,0,0,0-.0994-.2268A.35586.35586,0,0,0,20.7899.6H19.6757a.35419.35419,0,0,0-.2405.0943.30888.30888,0,0,0-.0998.2268V14.1264a.31408.31408,0,0,0,.0994.2272.35729.35729,0,0,0,.2417.0946h1.1138a.35913.35913,0,0,0,.2413-.0946.30987.30987,0,0,0,.0994-.2272V11.4611l2.1109-2.2883,1.4208,2.1261h-.0063l1.9976,2.9849a.33079.33079,0,0,0,.2873.1715h1.4512a.35268.35268,0,0,0,.2409-.0951.26877.26877,0,0,0-.0111-.3585" style="fill:#d00070"/><path d="M41.7929,14.1066a1.69783,1.69783,0,0,1-1.2292.4476H38.8935V9.7975h1.6702a1.69783,1.69783,0,0,1,1.2292.4476,2.45974,2.45974,0,0,1,.4811,1.8973A2.62015,2.62015,0,0,1,41.7929,14.1066Zm-.4943-3.3404a1.0287,1.0287,0,0,0-.8084-.3207H39.615v3.4607h.8752a1.029,1.029,0,0,0,.8084-.3207,2.3072,2.3072,0,0,0,.2538-1.4431C41.5524,11.4877,41.5458,11.0401,41.2986,10.7662Z" style="fill:#75787b"/><path d="M43.4097,14.5542V9.7975h3.0398v.648H44.1313v1.3896h1.9775v.6414H44.1313v1.4297h2.3182v.648Z" style="fill:#75787b"/><path d="M49.0417,14.5542h-.5612L46.9172,9.7975h.7483l1.0956,3.4606,1.0957-3.4606h.7616Z" style="fill:#75787b"/><path d="M51.34,14.5542V9.7975h3.0397v.648H52.0615v1.3896H54.039v.6414H52.0615v1.4297h2.3182v.648Z" style="fill:#75787b"/><path d="M55.4354,14.5542V9.7975h.7215v4.1087h2.2915v.648Z" style="fill:#75787b"/><path d="M62.1296,14.0865a1.79892,1.79892,0,0,1-2.5053,0c-.4676-.4676-.461-.9954-.461-1.9107,0-.9152-.0066-1.443.461-1.9107a1.79918,1.79918,0,0,1,2.5053,0c.4676.4677.4543.9955.4543,1.9107C62.5839,13.0911,62.5972,13.6189,62.1296,14.0865Zm-.5478-3.3871a1,1,0,0,0-1.4164,0c-.2338.2539-.2806.5211-.2806,1.4764,0,.9554.0468,1.2226.2806,1.4765a1.00021,1.00021,0,0,0,1.4164,0c.2338-.2539.2805-.5211.2805-1.4765C61.8623,11.2205,61.8156,10.9533,61.5818,10.6994Z" style="fill:#75787b"/><path d="M65.5235,12.6836H64.4412v1.8706h-.7215V9.7975h1.8038a1.44516,1.44516,0,1,1,0,2.8861Zm-.0401-2.2381H64.4412v1.5834h1.0422a.79319.79319,0,1,0,0-1.5834Z" style="fill:#75787b"/><path d="M67.9888,14.5542V9.7975h3.0398v.648H68.7104v1.3896h1.9775v.6414H68.7104v1.4297h2.3182v.648Z" style="fill:#75787b"/><path d="M74.7098,14.5542,73.7077,12.55h-.9019v2.0042h-.7216V9.7975h1.8439a1.3607,1.3607,0,0,1,1.4765,1.3896,1.249,1.249,0,0,1-.9487,1.2626l1.0957,2.1045Zm-.8351-4.1087H72.8058v1.4898h1.0689a.74739.74739,0,1,0,0-1.4898Z" style="fill:#75787b"/><path d="M77.7897,14.5943a2.15364,2.15364,0,0,1-1.6835-.628l.481-.4744a1.56965,1.56965,0,0,0,1.2159.4543c.6213,0,.9821-.2672.9821-.7282a.64012.64012,0,0,0-.1871-.4944.82663.82663,0,0,0-.5211-.2004l-.5612-.0801a1.62894,1.62894,0,0,1-.9019-.3808,1.18339,1.18339,0,0,1-.3474-.9086,1.406,1.406,0,0,1,1.59-1.3963,1.98078,1.98078,0,0,1,1.4765.5411l-.461.4543a1.39718,1.39718,0,0,0-1.0355-.3674c-.5612,0-.8685.3207-.8685.7415a.56562.56562,0,0,0,.1804.441,1.06217,1.06217,0,0,0,.5344.2205l.5412.0801a1.57354,1.57354,0,0,1,.8885.3541,1.24419,1.24419,0,0,1,.3875.9754C79.5,14.0732,78.7852,14.5943,77.7897,14.5943Z" style="fill:#75787b"/></svg>